<svg version="1.1" id="Layer_1" xmlns="http://www.w3.org/2000/svg" xmlns:xlink="http://www.w3.org/1999/xlink" x="0px" y="0px"
	 width="100%" viewBox="0 0 512 512" enable-background="new 0 0 512 512" xml:space="preserve">
<path fill="#FFFFFF" opacity="1.000000" stroke="none" 
	d="
M228.000000,513.000000 
	C152.018417,513.000000 76.536835,513.000000 1.027629,513.000000 
	C1.027629,342.393402 1.027629,171.786774 1.027629,1.090083 
	C171.564941,1.090083 342.129944,1.090083 512.847473,1.090083 
	C512.847473,171.666565 512.847473,342.333252 512.847473,513.000000 
	C418.120087,513.000000 323.310028,513.000000 228.000000,513.000000 
M287.509552,369.967255 
	C349.623871,350.940918 396.462616,311.411163 434.861420,259.295532 
	C435.371613,261.827423 435.722900,263.408142 436.005737,265.001038 
	C437.460327,273.192993 438.734070,281.421143 440.385742,289.572876 
	C442.076904,297.919220 449.942322,303.239166 457.752686,301.675812 
	C465.875580,300.049957 471.211700,292.549744 469.764099,284.212036 
	C466.006836,262.571472 462.181213,240.941360 458.157043,219.349152 
	C456.177582,208.728180 449.238892,204.292160 438.524933,206.220718 
	C433.448273,207.134537 428.377380,208.080688 423.298767,208.983459 
	C406.424316,211.983047 389.532654,214.888931 372.677887,217.995041 
	C364.196655,219.557999 358.808258,227.115555 360.154053,235.051727 
	C361.565460,243.375015 369.193146,248.702957 377.801544,247.352448 
	C380.102509,246.991470 382.389557,246.542465 384.685242,246.147049 
	C392.924133,244.727905 401.164001,243.314423 410.462189,241.716888 
	C409.014191,243.759659 408.285583,244.838501 407.506256,245.879395 
	C394.887970,262.732849 380.946289,278.377869 365.156677,292.344482 
	C325.091064,327.784241 278.506226,347.757751 225.008942,350.832581 
	C188.148407,352.951202 152.161865,347.491241 117.437141,335.245880 
	C100.234650,329.179596 83.719528,321.139221 66.985382,313.782806 
	C60.943699,311.126892 55.346855,311.024689 50.125698,315.217194 
	C45.057785,319.286682 43.596478,324.741547 45.178150,330.926941 
	C46.472626,335.989288 50.210934,338.908875 54.668087,341.243683 
	C96.789314,363.308197 141.436935,376.608490 188.918396,380.198792 
	C222.128967,382.709991 254.773849,379.828827 287.509552,369.967255 
M257.164612,260.500000 
	C257.164612,284.265961 257.164612,308.031891 257.164612,331.912659 
	C258.419067,331.912659 259.098450,332.034698 259.719055,331.895111 
	C287.205139,325.713684 312.381714,314.363861 335.135132,297.773956 
	C336.625488,296.687347 337.612885,293.921478 337.618622,291.933228 
	C337.754211,244.944427 337.745239,197.955109 337.705414,150.965942 
	C337.695709,139.513672 331.139221,133.077072 319.629822,133.049896 
	C305.133240,133.015656 290.636505,133.033066 276.139832,133.044144 
	C263.254578,133.053986 257.171173,139.133575 257.167969,152.024689 
	C257.159058,187.849792 257.164734,223.674896 257.164612,260.500000 
M242.297913,210.500214 
	C242.297394,205.669296 242.318359,200.838242 242.292130,196.007477 
	C242.228241,184.242996 236.148666,178.101151 224.486343,178.077255 
	C209.993607,178.047546 195.500778,178.062057 181.007980,178.071396 
	C168.067581,178.079742 162.052505,184.072815 162.050690,196.969604 
	C162.044601,240.281418 162.047562,283.593231 162.047073,326.905029 
	C162.047058,328.550598 162.047073,330.196198 162.047073,332.244904 
	C188.768280,337.252838 215.261978,338.767151 242.298065,334.862823 
	C242.298065,293.410492 242.298065,252.455307 242.297913,210.500214 
M147.293610,275.500031 
	C147.292847,262.843353 147.354980,250.186249 147.271866,237.530106 
	C147.202637,226.990936 141.018066,220.773544 130.513443,220.718597 
	C115.026031,220.637558 99.537636,220.642715 84.050156,220.716431 
	C73.404823,220.767105 67.056595,227.202774 67.031395,237.898438 
	C66.987053,256.716888 67.122665,275.536652 66.920586,294.353027 
	C66.884277,297.734650 67.962662,299.580994 70.926514,300.800812 
	C88.131554,307.881836 105.218178,315.264099 122.551506,322.013794 
	C130.325729,325.041138 138.579819,326.836182 147.293839,329.388947 
	C147.293839,311.081879 147.293839,293.790985 147.293610,275.500031 
z"/>
<path fill="#2089E5" opacity="1.000000" stroke="none" 
	d="
M287.118652,370.062317 
	C254.773849,379.828827 222.128967,382.709991 188.918396,380.198792 
	C141.436935,376.608490 96.789314,363.308197 54.668087,341.243683 
	C50.210934,338.908875 46.472626,335.989288 45.178150,330.926941 
	C43.596478,324.741547 45.057785,319.286682 50.125698,315.217194 
	C55.346855,311.024689 60.943699,311.126892 66.985382,313.782806 
	C83.719528,321.139221 100.234650,329.179596 117.437141,335.245880 
	C152.161865,347.491241 188.148407,352.951202 225.008942,350.832581 
	C278.506226,347.757751 325.091064,327.784241 365.156677,292.344482 
	C380.946289,278.377869 394.887970,262.732849 407.506256,245.879395 
	C408.285583,244.838501 409.014191,243.759659 410.462189,241.716888 
	C401.164001,243.314423 392.924133,244.727905 384.685242,246.147049 
	C382.389557,246.542465 380.102509,246.991470 377.801544,247.352448 
	C369.193146,248.702957 361.565460,243.375015 360.154053,235.051727 
	C358.808258,227.115555 364.196655,219.557999 372.677887,217.995041 
	C389.532654,214.888931 406.424316,211.983047 423.298767,208.983459 
	C428.377380,208.080688 433.448273,207.134537 438.524933,206.220718 
	C449.238892,204.292160 456.177582,208.728180 458.157043,219.349152 
	C462.181213,240.941360 466.006836,262.571472 469.764099,284.212036 
	C471.211700,292.549744 465.875580,300.049957 457.752686,301.675812 
	C449.942322,303.239166 442.076904,297.919220 440.385742,289.572876 
	C438.734070,281.421143 437.460327,273.192993 436.005737,265.001038 
	C435.722900,263.408142 435.371613,261.827423 434.861420,259.295532 
	C396.462616,311.411163 349.623871,350.940918 287.118652,370.062317 
z"/>
<path fill="#22A25E" opacity="1.000000" stroke="none" 
	d="
M257.164642,260.000000 
	C257.164734,223.674896 257.159058,187.849792 257.167969,152.024689 
	C257.171173,139.133575 263.254578,133.053986 276.139832,133.044144 
	C290.636505,133.033066 305.133240,133.015656 319.629822,133.049896 
	C331.139221,133.077072 337.695709,139.513672 337.705414,150.965942 
	C337.745239,197.955109 337.754211,244.944427 337.618622,291.933228 
	C337.612885,293.921478 336.625488,296.687347 335.135132,297.773956 
	C312.381714,314.363861 287.205139,325.713684 259.719055,331.895111 
	C259.098450,332.034698 258.419067,331.912659 257.164612,331.912659 
	C257.164612,308.031891 257.164612,284.265961 257.164642,260.000000 
z"/>
<path fill="#F4B30F" opacity="1.000000" stroke="none" 
	d="
M242.297989,211.000168 
	C242.298065,252.455307 242.298065,293.410492 242.298065,334.862823 
	C215.261978,338.767151 188.768280,337.252838 162.047073,332.244904 
	C162.047073,330.196198 162.047058,328.550598 162.047073,326.905029 
	C162.047562,283.593231 162.044601,240.281418 162.050690,196.969604 
	C162.052505,184.072815 168.067581,178.079742 181.007980,178.071396 
	C195.500778,178.062057 209.993607,178.047546 224.486343,178.077255 
	C236.148666,178.101151 242.228241,184.242996 242.292130,196.007477 
	C242.318359,200.838242 242.297394,205.669296 242.297989,211.000168 
z"/>
<path fill="#DD5040" opacity="1.000000" stroke="none" 
	d="
M147.293732,276.000061 
	C147.293839,293.790985 147.293839,311.081879 147.293839,329.388947 
	C138.579819,326.836182 130.325729,325.041138 122.551506,322.013794 
	C105.218178,315.264099 88.131554,307.881836 70.926514,300.800812 
	C67.962662,299.580994 66.884277,297.734650 66.920586,294.353027 
	C67.122665,275.536652 66.987053,256.716888 67.031395,237.898438 
	C67.056595,227.202774 73.404823,220.767105 84.050156,220.716431 
	C99.537636,220.642715 115.026031,220.637558 130.513443,220.718597 
	C141.018066,220.773544 147.202637,226.990936 147.271866,237.530106 
	C147.354980,250.186249 147.292847,262.843353 147.293732,276.000061 
z"/>
</svg>